<mxfile host="app.diagrams.net" modified="2022-01-14T11:51:17.651Z" agent="5.0 (Windows NT 10.0; Win64; x64) AppleWebKit/537.36 (KHTML, like Gecko) Chrome/97.0.4692.71 Safari/537.36" etag="bGSFwsVKT1zpoQ2RnYAU" version="16.2.6" type="github">
  <diagram id="R2lEEEUBdFMjLlhIrx00" name="Page-1">
    <mxGraphModel dx="1422" dy="762" grid="1" gridSize="10" guides="1" tooltips="1" connect="1" arrows="1" fold="1" page="1" pageScale="1" pageWidth="850" pageHeight="1100" math="0" shadow="0" extFonts="Permanent Marker^https://fonts.googleapis.com/css?family=Permanent+Marker">
      <root>
        <mxCell id="0" />
        <mxCell id="1" parent="0" />
        <mxCell id="fTMV2Z_elEWQ67q5K9GD-14" style="edgeStyle=orthogonalEdgeStyle;curved=1;rounded=1;sketch=1;orthogonalLoop=1;jettySize=auto;html=1;exitX=1;exitY=0.75;exitDx=0;exitDy=0;entryX=0;entryY=0.75;entryDx=0;entryDy=0;fontFamily=Helvetica;fontSize=12;fontColor=rgb(0, 0, 0);" edge="1" parent="1" source="fTMV2Z_elEWQ67q5K9GD-1" target="fTMV2Z_elEWQ67q5K9GD-2">
          <mxGeometry relative="1" as="geometry" />
        </mxCell>
        <mxCell id="fTMV2Z_elEWQ67q5K9GD-1" value="&lt;p&gt;t_ekyc_application&lt;br&gt;ekyc申请记录&lt;br&gt;&lt;/p&gt;" style="rounded=1;whiteSpace=wrap;html=1;sketch=1;" vertex="1" parent="1">
          <mxGeometry x="80" y="230" width="140" height="60" as="geometry" />
        </mxCell>
        <mxCell id="fTMV2Z_elEWQ67q5K9GD-15" style="edgeStyle=orthogonalEdgeStyle;curved=1;rounded=1;sketch=1;orthogonalLoop=1;jettySize=auto;html=1;exitX=1;exitY=0.75;exitDx=0;exitDy=0;entryX=0;entryY=0.75;entryDx=0;entryDy=0;fontFamily=Helvetica;fontSize=12;fontColor=rgb(0, 0, 0);" edge="1" parent="1" source="fTMV2Z_elEWQ67q5K9GD-2" target="fTMV2Z_elEWQ67q5K9GD-3">
          <mxGeometry relative="1" as="geometry" />
        </mxCell>
        <mxCell id="fTMV2Z_elEWQ67q5K9GD-2" value="&lt;p&gt;t_customer_citizenship&lt;br&gt;客户地址&lt;br&gt;&lt;/p&gt;" style="rounded=1;whiteSpace=wrap;html=1;sketch=1;" vertex="1" parent="1">
          <mxGeometry x="320" y="230" width="140" height="60" as="geometry" />
        </mxCell>
        <mxCell id="fTMV2Z_elEWQ67q5K9GD-19" style="edgeStyle=orthogonalEdgeStyle;curved=1;rounded=1;sketch=1;orthogonalLoop=1;jettySize=auto;html=1;exitX=0.5;exitY=1;exitDx=0;exitDy=0;entryX=0.5;entryY=0;entryDx=0;entryDy=0;fontFamily=Helvetica;fontSize=12;fontColor=rgb(0, 0, 0);" edge="1" parent="1" source="fTMV2Z_elEWQ67q5K9GD-3" target="fTMV2Z_elEWQ67q5K9GD-18">
          <mxGeometry relative="1" as="geometry" />
        </mxCell>
        <mxCell id="fTMV2Z_elEWQ67q5K9GD-3" value="&lt;p&gt;t_customer_adress&lt;br&gt;客户地址&lt;br&gt;&lt;/p&gt;" style="rounded=1;whiteSpace=wrap;html=1;sketch=1;" vertex="1" parent="1">
          <mxGeometry x="570" y="230" width="140" height="60" as="geometry" />
        </mxCell>
        <mxCell id="fTMV2Z_elEWQ67q5K9GD-4" style="edgeStyle=orthogonalEdgeStyle;curved=1;rounded=1;sketch=1;orthogonalLoop=1;jettySize=auto;html=1;entryX=1;entryY=0.5;entryDx=0;entryDy=0;fontFamily=Helvetica;fontSize=12;fontColor=rgb(0, 0, 0);" edge="1" parent="1" source="fTMV2Z_elEWQ67q5K9GD-1" target="fTMV2Z_elEWQ67q5K9GD-1">
          <mxGeometry relative="1" as="geometry" />
        </mxCell>
        <mxCell id="fTMV2Z_elEWQ67q5K9GD-5" value="判断是否有申请记录" style="edgeLabel;html=1;align=center;verticalAlign=middle;resizable=0;points=[];fontSize=12;fontFamily=Helvetica;fontColor=rgb(0, 0, 0);" vertex="1" connectable="0" parent="fTMV2Z_elEWQ67q5K9GD-4">
          <mxGeometry x="0.0778" y="-8" relative="1" as="geometry">
            <mxPoint as="offset" />
          </mxGeometry>
        </mxCell>
        <mxCell id="fTMV2Z_elEWQ67q5K9GD-7" style="edgeStyle=orthogonalEdgeStyle;curved=1;rounded=1;sketch=1;orthogonalLoop=1;jettySize=auto;html=1;exitX=0.5;exitY=0;exitDx=0;exitDy=0;entryX=1;entryY=0.5;entryDx=0;entryDy=0;fontFamily=Helvetica;fontSize=12;fontColor=rgb(0, 0, 0);" edge="1" parent="1" source="fTMV2Z_elEWQ67q5K9GD-2" target="fTMV2Z_elEWQ67q5K9GD-2">
          <mxGeometry relative="1" as="geometry" />
        </mxCell>
        <mxCell id="fTMV2Z_elEWQ67q5K9GD-8" value="判断是否包含香港、澳门" style="edgeLabel;html=1;align=center;verticalAlign=middle;resizable=0;points=[];fontSize=12;fontFamily=Helvetica;fontColor=rgb(0, 0, 0);" vertex="1" connectable="0" parent="fTMV2Z_elEWQ67q5K9GD-7">
          <mxGeometry x="0.1" y="-9" relative="1" as="geometry">
            <mxPoint as="offset" />
          </mxGeometry>
        </mxCell>
        <mxCell id="fTMV2Z_elEWQ67q5K9GD-12" style="edgeStyle=orthogonalEdgeStyle;curved=1;rounded=1;sketch=1;orthogonalLoop=1;jettySize=auto;html=1;exitX=0.75;exitY=0;exitDx=0;exitDy=0;entryX=1;entryY=0.5;entryDx=0;entryDy=0;fontFamily=Helvetica;fontSize=12;fontColor=rgb(0, 0, 0);" edge="1" parent="1" source="fTMV2Z_elEWQ67q5K9GD-3" target="fTMV2Z_elEWQ67q5K9GD-3">
          <mxGeometry relative="1" as="geometry" />
        </mxCell>
        <mxCell id="fTMV2Z_elEWQ67q5K9GD-13" value="判断是否是大湾地区" style="edgeLabel;html=1;align=center;verticalAlign=middle;resizable=0;points=[];fontSize=12;fontFamily=Helvetica;fontColor=rgb(0, 0, 0);" vertex="1" connectable="0" parent="fTMV2Z_elEWQ67q5K9GD-12">
          <mxGeometry x="0.1448" y="-8" relative="1" as="geometry">
            <mxPoint as="offset" />
          </mxGeometry>
        </mxCell>
        <mxCell id="fTMV2Z_elEWQ67q5K9GD-17" style="edgeStyle=orthogonalEdgeStyle;curved=1;rounded=1;sketch=1;orthogonalLoop=1;jettySize=auto;html=1;exitX=0.5;exitY=1;exitDx=0;exitDy=0;exitPerimeter=0;entryX=0.207;entryY=0.033;entryDx=0;entryDy=0;entryPerimeter=0;fontFamily=Helvetica;fontSize=12;fontColor=rgb(0, 0, 0);" edge="1" parent="1" source="fTMV2Z_elEWQ67q5K9GD-16" target="fTMV2Z_elEWQ67q5K9GD-1">
          <mxGeometry relative="1" as="geometry" />
        </mxCell>
        <mxCell id="fTMV2Z_elEWQ67q5K9GD-16" value="" style="strokeWidth=2;html=1;shape=mxgraph.flowchart.start_2;whiteSpace=wrap;rounded=1;sketch=1;fontFamily=Helvetica;fontSize=12;fontColor=rgb(0, 0, 0);fillColor=rgb(255, 255, 255);" vertex="1" parent="1">
          <mxGeometry x="90" y="110" width="40" height="40" as="geometry" />
        </mxCell>
        <mxCell id="fTMV2Z_elEWQ67q5K9GD-21" style="edgeStyle=orthogonalEdgeStyle;curved=1;rounded=1;sketch=1;orthogonalLoop=1;jettySize=auto;html=1;exitX=0.5;exitY=1;exitDx=0;exitDy=0;entryX=0.5;entryY=0;entryDx=0;entryDy=0;fontFamily=Helvetica;fontSize=12;fontColor=rgb(0, 0, 0);" edge="1" parent="1" source="fTMV2Z_elEWQ67q5K9GD-18" target="fTMV2Z_elEWQ67q5K9GD-20">
          <mxGeometry relative="1" as="geometry" />
        </mxCell>
        <mxCell id="fTMV2Z_elEWQ67q5K9GD-18" value="需要上传地址证明" style="rounded=1;whiteSpace=wrap;html=1;sketch=1;fontFamily=Helvetica;fontSize=12;fontColor=rgb(0, 0, 0);strokeColor=rgb(0, 0, 0);fillColor=rgb(255, 255, 255);" vertex="1" parent="1">
          <mxGeometry x="580" y="340" width="120" height="60" as="geometry" />
        </mxCell>
        <mxCell id="fTMV2Z_elEWQ67q5K9GD-20" value="" style="ellipse;html=1;shape=endState;fillColor=#000000;strokeColor=#ff0000;rounded=1;sketch=1;fontFamily=Helvetica;fontSize=12;fontColor=rgb(0, 0, 0);" vertex="1" parent="1">
          <mxGeometry x="625" y="450" width="30" height="30" as="geometry" />
        </mxCell>
      </root>
    </mxGraphModel>
  </diagram>
</mxfile>
